<svg width="32" height="32" viewBox="0 0 32 32" fill="none" xmlns="http://www.w3.org/2000/svg">
<g clip-path="url(#clip0_1_2)">
<path fill-rule="evenodd" clip-rule="evenodd" d="M2.21076 13.7738L19.3884 4.83432C27.5684 0.723643 29.2681 0.00962038 30.3759 -0.0139383C30.6197 -0.0191341 31.1645 0.0538188 31.5173 0.399797C31.8154 0.691897 31.8973 1.08663 31.9366 1.3635C31.9759 1.64037 32.0247 2.27147 31.9858 2.76449C31.5425 8.39154 29.6245 22.0473 28.6487 28.3498C28.2357 31.0167 27.4234 31.9109 26.6357 31.9984C24.9252 32.1886 23.6263 30.6325 21.9696 29.3205L15.3961 23.9858C12.488 21.6705 14.3732 20.3979 16.0306 18.3182C16.4643 17.7737 24.0009 9.49154 24.1467 8.74023C24.1643 8.64628 24.1818 8.2961 24.0096 8.11104C23.8374 7.92599 23.5831 7.99005 23.3997 8.03966C23.1398 8.11097 18.9983 11.4182 10.9755 17.9614C9.79992 18.9367 8.73511 19.4119 7.78118 19.387C6.72946 19.3595 4.70643 18.6685 3.20251 18.0779C1.35785 17.3535 -0.108243 16.9704 0.0194745 15.7401C0.0859252 15.0993 0.816352 14.444 2.2107 13.774L2.21076 13.7738Z" fill="white"/>
</g>
<defs>
<clipPath id="clip0_1_2">
<rect width="32" height="32" fill="white"/>
</clipPath>
</defs>
</svg>
